<?xml version="1.0" encoding="utf-8"?>
<!-- Generator: Adobe Illustrator 27.1.0, SVG Export Plug-In . SVG Version: 6.00 Build 0)  -->
<svg version="1.1" id="Layer_1" xmlns:ev="http://www.w3.org/2001/xml-events"
	 xmlns="http://www.w3.org/2000/svg" xmlns:xlink="http://www.w3.org/1999/xlink" x="0px" y="0px" viewBox="0 0 1284 1541"
	 style="enable-background:new 0 0 1284 1541;" xml:space="preserve">
<style type="text/css">
	.st0{fill:none;stroke:#000000;}
</style>
<path class="st0" d="M524,434h-4h-1h-9h-1"/>
<path class="st0" d="M583,433l-2,1h-1h-5h-1h-4h-1h-9h-1h-9h-1h-9h-1h-9h-1"/>
<path class="st0" d="M525,520l-1-3v-1v-5v-1v-5v-1v-4v-1v-5v-1v-5v-1v-5v-1v-4v-1v-5v-1v-5v-1v-5v-1v-4v-1v-5v-1v-4v-1v-5v-1"/>
<path class="st0" d="M524,434v-2v-1v-5v-1v-4v-1v-5v-1v-4v-1v-5v-1v-4v-1v-5v-1v-4v-1v-5v-1v-4v-1v-5v-1v-4v-1v-5v-1v-4v-1v-5v-1"/>
<path class="st0" d="M657,433l-5,1h-1h-8h-1h-8h-1h-8h-1h-8h-1h-8h-1h-8h-1h-8h-1"/>
<path class="st0" d="M583,433l1-4v-1l3-6l1-1l5-5l1-1l7-5l1-1l7-4h1l7-4h1l7-3l1-1l8-3h1l7-3h1"/>
<path class="st0" d="M724,434v-1v-1v-5v-1v-5v-1v-5v-1v-4v-1v-5v-1v-4v-1v-5v-1v-4v-1v-5v-1v-4v-1v-5v-1v-4v-1v-5v-1v-4v-1v-5v-1"/>
<path class="st0" d="M810,480l-3,2h-1l-5-2h-1l-9-3h-1l-5-2h-1l-5-2h-1l-5-2l-1-1l-4-1l-1-1l-3-1h-1l-7-3l-1-1l-5-2l-1-1l-4-2l-1-1
	l-8-5l-1-1l-6-4l-1-1"/>
<path class="st0" d="M725,518l-1-5v-1v-8v-1v-9v-1v-8v-1v-9v-1v-9v-1v-9v-1"/>
<path class="st0" d="M725,446v-1v-1v-5v-1"/>
<path class="st0" d="M820,434h-6h-1h-5h-1h-5h-1h-5h-1h-4h-1h-5h-1h-5h-1h-5h-1h-4h-1h-5h-1h-5h-1h-5h-1h-4h-1h-5h-1h-4h-1h-5h-1"/>
<path class="st0" d="M724,434h-1h-1h-5h-1h-4h-1h-5h-1"/>
<path class="st0" d="M1116,434h-3h-1h-5h-1h-5h-1h-4h-1h-5h-1h-5h-1h-5h-1h-4h-1h-5h-1h-5h-1h-5h-1h-4h-1h-5h-1h-4h-1h-5h-1h-4h-1"
	/>
<path class="st0" d="M1147,435l-4-1h-1h-7h-1h-7h-1h-7h-1"/>
<path class="st0" d="M1116,520l1-3v-1v-5v-1v-5v-1v-4v-1v-5v-1v-4v-1v-5v-1v-4v-1v-5v-1v-5v-1v-5v-1v-4v-1v-5v-1v-4v-1v-5v-1"/>
<path class="st0" d="M1116,434v-1v-1v-6v-1"/>
<path class="st0" d="M1116,422l1-3v-1v-8v-1v-5v-1v-4v-1v-5v-1v-4v-1v-5v-1v-4v-1v-5v-1v-4v-1v-5v-1v-4v-1v-5v-1"/>
<path class="st0" d="M1116,422l-4-2h-1l-6-5l-1-1l-8-5l-1-1l-5-3h-1l-5-3h-1l-6-3l-1-1l-3-1h-1l-5-2h-1l-4-2h-1l-5-2h-1l-4-2h-1
	l-6-2h-1l-5-2h-1"/>
<path class="st0" d="M891,412l-1-3v-1v-5v-1v-4v-1v-7v-1v-7v-1v-7v-1v-6v-1v-6v-1v-6v-1"/>
<path class="st0" d="M890,434v-2v-1v-8v-1l2-7v-1"/>
<path class="st0" d="M946,350l-4,3l-1,1l-5,4l-1,1l-3,3l-1,1l-7,8l-1,1l-4,5l-1,1l-3,4l-1,1l-2,3l-1,1l-3,5l-1,1l-3,5l-1,1l-2,4
	l-1,1l-2,4v1l-4,3l-1,1"/>
<path class="st0" d="M891,520l-1-3v-1v-5v-1v-5v-1v-4v-1v-5v-1v-5v-1v-5v-1v-4v-1v-5v-1v-5v-1v-5v-1v-4v-1v-5v-1v-4v-1v-5v-1"/>
<path class="st0" d="M983,435l-5-1h-1h-8h-1h-9h-1h-8h-1h-7h-1h-7h-1h-7h-1h-6h-1h-7h-1h-7h-1h-7h-1"/>
<path class="st0" d="M890,434h-2h-1h-7h-1h-7h-1h-7h-1"/>
<path class="st0" d="M747,1312l-4-1h-1h-8h-1"/>
<path class="st0" d="M753,1309l-1,1h-1"/>
<path class="st0" d="M737,1336l2-4l1-1l4-8l1-1l3-7v-1"/>
<path class="st0" d="M813,1311h-2h-1"/>
<path class="st0" d="M808,1309l-3,2h-1h-5h-1h-2h-1h-7h-1h-6h-1h-7h-1h-6h-1h-3h-1"/>
<path class="st0" d="M753,1309l1-6l1-1l5-9l1-1l4-7l1-1l7-7l1-1l6-2h1l7,3l1,1l6,6v1l5,7v1l5,9l1,1"/>
<path class="st0" d="M870,1309v-2v-1v-4v-1"/>
<path class="st0" d="M924,1310v-1v-1l-2-7l-1-1l-4-7v-1l-5-8l-1-1l-5-5l-1-1l-7-3h-1l-7,3l-1,1l-7,8v1l-5,7l-1,2"/>
<path class="st0" d="M924,1310l-4,1h-1h-5h-1h-4h-1h-5h-1h-4h-1h-6h-1h-5h-1h-6h-1h-5l-1-1"/>
<path class="st0" d="M866,1323v-1v-1l1-7v-1"/>
<path class="st0" d="M867,1380l1-4v-1v-8v-1v-8v-1v-8v-1v-5v-1v-5v-1v-4v-1"/>
<path class="st0" d="M866,1323l-4,2h-1l-3,6l-1,1l-3,4v1l-3,4l-1,1l-9,5h-1l-5-1h-1l-5-3l-1-1l-5-7l-1-1l-3-6l-1-1l-3-5v-1l-2-4
	l-1-1"/>
<path class="st0" d="M870,1309l-6,1h-1h-7h-1h-7h-1l-6-1h-1l-7,1h-1h-6h-1h-5h-1"/>
<path class="st0" d="M989,1308l-1,1l-1,1l-2,1h-1"/>
<path class="st0" d="M929,1322l-3,5h-1v-6h1"/>
<path class="st0" d="M982,1312v6v1l-5,9v1l-3,5l-1,1l-5,7l-1,1l-4,3h-1l-5,1h-1l-4-1h-1l-4-2l-1-1l-3-4l-1-1l-3-5l-1-2l-2-2v-1l-4-5
	h-1"/>
<path class="st0" d="M982,1312l-6-1h-1h-7h-1h-7h-1h-7h-1h-6h-1h-6h-1"/>
<path class="st0" d="M929,1322l1-3v-1"/>
<path class="st0" d="M930,1312l-2-1h-1"/>
<path class="st0" d="M868,1301v-6v-1v-5v-1v-5v-1v-5v-1v-4v-1v-7v-1v-6v-1v-7v-1v-6v-1v-7v-1v-6v-1v-6v-1"/>
<path class="st0" d="M1100,1312l-7-1h-1h-4h-1h-6h-1h-6h-1h-6h-1h-6h-1h-4h-1"/>
<path class="st0" d="M1100,1312v6l-1,1l-5,9v1l-5,8l-1,1l-4,4l-1,1l-2,2l-1,1l-6,1h-1l-5-1l-1-1l-6-6l-1-1l-6-9l-1-1l-4-9l-1-1"/>
<path class="st0" d="M1106,1309l-3,2h-1"/>
<path class="st0" d="M1146,1308l-4,3h-1h-8h-1h-7h-1h-6h-1h-7h-1"/>
<path class="st0" d="M1106,1309l1-6l1-1l3-6l1-1l1-2v-1l4-6l1-1l4-5l1-1"/>
<path class="st0" d="M989,1308l1-5v-1l5-9l1-1l3-5v-1l4-5l1-1l1-1l1-1l4-3h1l5-1h1l8,4l1,1l3,4l1,1l3,5l1,1l2,4l1,1l4,8v1"/>
<path class="st0" d="M1042,1310l-6,1h-1h-4h-1h-6h-1h-6h-1h-7h-1h-6h-1h-4h-1"/>
<path class="st0" d="M1048,1312l-2-1h-1"/>
<path class="st0" d="M1006,797l2,3v1l-2,7v1l-2,7v1l-2,7v1l-2,7v1l-2,7v1l-2,7l-1,1l-2,7v1l-3,8v1l-2,6l-1,1l-2,7l-1,1l-2,7l-1,1
	l-3,7l-1,1l-3,7l-1,1l-5,8l-1,1l-5,5l-1,1l-8,3h-1l-8-3l-1-1l-6-7l-1-1l-5-7v-1l-4-7v-1l-3-7l-1-1l-3-8v-1l-3-7v-1l-3-8v-1l-2-5v-1
	l-2-6v-1l-2-8l-1-1l-2-7v-1l-1-6l-1-1l-1-7l-1-1l-1-7v-1l-2-7v-1"/>
<path class="st0" d="M1028,949h-2h-1h-7h-1h-6h-1h-9h-1h-9h-1h-9h-1h-9h-1h-9h-1h-9h-1h-9h-1h-9h-1h-9h-1h-9h-1h-9h-1h-9h-1h-9h-1
	h-9h-1h-9h-1"/>
<path class="st0" d="M1028,949v-5v-1v-5v-1v-5v-1v-5v-1v-6v-1v-5v-1v-5v-1v-5v-1v-5v-1v-5v-1v-5v-1v-6v-1v-5v-1v-5v-1v-5v-1v-5v-1
	v-5v-1v-5v-1v-5v-1v-6v-1v-5v-1v-5v-1v-5v-1v-5v-1v-5v-1v-5v-1"/>
<path class="st0" d="M1031,978l-3-3v-1v-5v-1v-5v-1v-5v-1v-4v-1"/>
<path class="st0" d="M1078,947l-4,2h-1h-8h-1h-8h-1h-8h-1h-5h-1h-4h-1"/>
<path class="st0" d="M781,948l-4,1h-1h-7h-1h-7h-1h-6h-1h-7h-1h-6h-1h-7h-1h-6h-1h-9h-1h-9h-1h-7h-1h-6h-1h-8h-1h-5h-1"/>
<path class="st0" d="M668,948l1-3v-1l3-5l1-1l5-8v-1l3-4v-1l4-8v-1l2-5l1-1l2-5v-1l2-4v-1l3-9l1-1l1-4v-1l2-5v-1l3-8v-1l3-9v-1l3-9
	v-1l2-9l1-1l2-9v-1l3-9v-1l2-9v-1l2-9l1-1"/>
<path class="st0" d="M650,947l-1-3v-1l-4-5l-1-1l-5-7v-1l-5-9l-1-1l-4-9v-1l-4-9v-1l-3-9l-1-1l-3-9v-1l-3-9v-1l-3-9v-1l-3-9v-1l-2-9
	v-1l-3-9v-1l-2-9v-1l-2-9l-1-1l-2-9v-1"/>
<path class="st0" d="M658,948l-5-1h-1"/>
<path class="st0" d="M668,948h-1h-1h-4h-1"/>
<path class="st0" d="M657,981l2-3v-1v-5v-1v-6v-1v-5v-1v-6v-1"/>
<path class="st0" d="M658,948v-2l1-1v-5v-1v-5v-1v-6v-1v-5v-1v-6v-1v-5v-1v-6v-1v-5v-1v-5v-1v-5v-1v-6v-1v-5v-1v-6v-1v-5v-1v-6v-1
	v-5v-1v-5v-1v-5v-1v-6v-1v-5v-1v-5v-1v-5v-1v-6v-1v-5v-1v-5v-1"/>
<path class="st0" d="M650,947l-6,2h-1h-5h-1h-9h-1h-6h-1h-6h-1h-9h-1h-8h-1h-6h-1h-6h-1h-6h-1h-6h-1h-6h-1h-6h-1h-6h-1"/>
<path class="st0" d="M309,1312l-2-1h-1h-4h-1h-7h-1h-6h-1h-7h-1h-7h-1h-7h-1h-6h-1h-7h-1h-7h-1h-7h-1h-6h-1h-7h-1h-6h-1l-7-1h-1"/>
<path class="st0" d="M309,1312l3-6v-1v-6v-1v-5v-1v-4v-1v-5v-1v-4v-1v-5v-1v-4v-1v-9v-1v-5v-1v-4v-1v-5v-1v-4v-1v-5v-1v-4v-1"/>
<path class="st0" d="M315,1308l-1,2L315,1308h-1l-1,1"/>
<path class="st0" d="M314,1382l-2-3v-1v-4v-1v-5v-1v-4v-1v-5v-1v-4v-1v-9v-1v-5v-1v-4v-1v-5v-1v-4v-1v-3v-1"/>
<path class="st0" d="M309,1315"/>
<path class="st0" d="M427,1311h-4h-1h-6h-1h-6h-1h-6h-1h-6h-1h-6h-1h-6h-1h-6h-1h-6h-1h-6h-1h-6h-1h-6h-1h-6h-1h-6h-1h-6h-1h-6h-1"
	/>
<path class="st0" d="M317,434h-1h-1h-5h-1h-4h-1h-5h-1"/>
<path class="st0" d="M415,435l-4-1h-1h-5h-1h-6h-1h-5h-1h-6h-1h-5h-1h-5h-1h-5h-1h-6h-1h-5h-1h-6h-1h-5h-1h-6h-1h-5h-1h-5h-1"/>
<path class="st0" d="M318,482l-1-5v-1v-7v-1v-7v-1v-6v-1v-5v-1v-4v-1"/>
<path class="st0" d="M319,518l-2-5v-1v-8v-1v-9v-1v-8v-1"/>
<path class="st0" d="M415,435v2l-1,1l-2,2h-1l-6,2h-1l-6,2h-1l-5,2h-1l-5,2h-1l-6,2l-1,1l-5,1l-1,1l-5,2h-1l-6,2l-1,1l-5,2h-1l-6,3
	l-1,1l-5,2l-1,1l-9,6l-1,1l-5,4l-1,1l-1,2h-1l-2,1h-1"/>
<path class="st0" d="M457,432h-3h-1h-3h-1h-5l-1,1h-4h-1l-5,1h-1h-4h-1l-9,1h-1"/>
<path class="st0" d="M317,434v-1v-1v-5v-1v-5v-1v-5v-1v-4v-1v-5v-1v-4v-1v-5v-1v-4v-1v-5v-1v-4v-1v-5v-1v-4v-1v-5v-1v-4v-1v-5v-1"/>
<path class="st0" d="M162,420l-1-3v-1v-5v-1v-5v-1v-4v-1v-5v-1v-4v-1v-5v-1v-4v-1v-5v-1v-4v-1v-5v-1v-4v-1v-5v-1"/>
<path class="st0" d="M161,434v-1v-1v-9l1-1"/>
<path class="st0" d="M247,386l-3-2h-1l-5,2h-1l-9,3h-1l-5,2h-1l-5,2h-1l-5,2l-1,1l-4,1l-1,1l-9,4h-1l-6,3l-1,1l-5,2l-1,1l-5,3l-1,1
	l-5,4l-1,1"/>
<path class="st0" d="M162,520l-1-3v-1v-5v-1v-5v-1v-4v-1v-5v-1v-4v-1v-5v-1v-4v-1v-5v-1v-5v-1v-5v-1v-4v-1v-5v-1v-4v-1v-5v-1"/>
<path class="st0" d="M255,435l-4-1h-1h-5h-1h-5h-1h-5h-1h-4h-1h-5h-1h-5h-1h-5h-1h-4h-1h-5h-1h-5h-1h-5h-1h-4h-1h-5h-1h-4h-1h-5h-1"
	/>
<path class="st0" d="M161,434h-1h-1h-5h-1h-5h-1h-5h-1"/>
</svg>
