<?xml version="1.0" encoding="utf-8"?>
<!-- Generator: Adobe Illustrator 27.3.1, SVG Export Plug-In . SVG Version: 6.00 Build 0)  -->
<svg version="1.1" id="Layer_1" xmlns:ev="http://www.w3.org/2001/xml-events"
   xmlns="http://www.w3.org/2000/svg" xmlns:xlink="http://www.w3.org/1999/xlink" x="0px" y="0px" viewBox="0 0 1284 1541"
   style="enable-background:new 0 0 1284 1541;" xml:space="preserve">
<style type="text/css">
  .st0{fill:none;stroke:#000000;}
</style>
<path class="st0" d="M524,434c-4.2,0-11.8,0-16,0"/>
<path class="st0" d="M583,433c-17.6,2.6-37.1,0.2-55,1"/>
<path class="st0" d="M524,521c0-28.3,0-56.7,0-85"/>
<path class="st0" d="M524,434c0-26.9,0-54.1,0-81"/>
<path class="st0" d="M524,351c-5.1-5.2,1.8-4.9,2-3"/>
<path class="st0" d="M657,434c-22.7,0-46.3,0-69,0"/>
<path class="st0" d="M583,433c2.5-23.4,41.7-34.4,61-42"/>
<path class="st0" d="M724,351c-5.1-5.2,1.8-4.9,2-3"/>
<path class="st0" d="M724,434c0-26.9,0-54.1,0-81"/>
<path class="st0" d="M723,519c2.5-22.9,0.3-46.9,1-70"/>
<path class="st0" d="M812,481c-3.8,5.1-22.7-5.5-29-6c-18.8-7.5-39.2-14-54-29"/>
<path class="st0" d="M726,445c0.7-2.1-2.2-5-2-7"/>
<path class="st0" d="M820,434c-31.6,0-63.4,0-95,0"/>
<path class="st0" d="M724,434c-4.7,0-10.3,0-15,0"/>
<path class="st0" d="M1118,435c-30.2-2.7-61.5-0.1-92-1"/>
<path class="st0" d="M1148,434c-8.9,0-19.1,0-28,0"/>
<path class="st0" d="M1118,521c-2.7-27.5-0.1-56.2-1-84"/>
<path class="st0" d="M1118,435c-0.5-0.6-2.5-2-2-3"/>
<path class="st0" d="M1117,429c-0.5-0.6-4.8-2.9-4-4"/>
<path class="st0" d="M1117,429c0.2-0.7,1.2-3.3,1-4"/>
<path class="st0" d="M1113,422c7.7-3.7,2.7-18.5,4-26c0-14.2,0-28.8,0-43"/>
<path class="st0" d="M1117,350c-5.3-3.5,1.8-4.1,2-2"/>
<path class="st0" d="M1113,422c-20.6-20-50.1-28.6-77-37"/>
<path class="st0" d="M892,416c-4-5.3-1.2-13.7-2-20c0-14,0-29,0-43"/>
<path class="st0" d="M890,434c0-2.1,0-4.9,0-7"/>
<path class="st0" d="M893,424c-0.4-0.6-4.7-4-4-5"/>
<path class="st0" d="M893,424c0.2-0.7,1.2-4.3,1-5"/>
<path class="st0" d="M944,354c-4.4-3.6-11.1,8.6-15,11c-13.7,14-24.7,31.6-34,49"/>
<path class="st0" d="M890,521c0-28.3,0-56.7,0-85"/>
<path class="st0" d="M985,434c-30.5,0-61.5,0-92,0"/>
<path class="st0" d="M890,434c-8.9,0-19.1,0-28,0"/>
<path class="st0" d="M748,1312c-3.8-1.2-10.1-1.1-14-1"/>
<path class="st0" d="M753,1310c-0.5,0-1.5,0-2,0"/>
<path class="st0" d="M738,1336c1.6-6.9,8.1-14.2,10-21"/>
<path class="st0" d="M812,1311c-0.6-0.3-2.3-1.3-3-1"/>
<path class="st0" d="M808,1309c-15.7,4.5-33.7,0.9-50,2"/>
<path class="st0" d="M753,1310c-0.6-3.3,1.7-8.7,4-11c3.9-9.9,10.8-19.3,20-25c14.1-1.8,25.2,21.1,30,32"/>
<path class="st0" d="M925,1310c-3-12.3-11.2-24.1-20-33c-15.6-11-25,13.6-32,24"/>
<path class="st0" d="M869,1307c0.2-0.7,1.2-3.3,1-4"/>
<path class="st0" d="M925,1310c-17.2,2.4-35.6,0.3-53,1"/>
<path class="st0" d="M866,1321c-0.3-2,1.1-6.9,1-9"/>
<path class="st0" d="M870,1381c-3.5-6.4-1.5-16-2-23c0-11.1,0-23,0-34"/>
<path class="st0" d="M866,1321c-2.1,0.8-5.2,2.2-5,5c-2.1,3.7-6.9,10.2-9,14c-5.1,7.3-16.6,10.3-23,3c-6.1-7.4-12.4-17.2-16-26"/>
<path class="st0" d="M869,1307c-5.4,6.2-39.2,1.7-50,3"/>
<path class="st0" d="M988,1310c-0.5,0-1.5,0-2,0"/>
<path class="st0" d="M929,1322c-1.1,2-2.5,4.3-4,6c-4.2-3.3-5.5-6,1-7"/>
<path class="st0" d="M983,1312c1.5,6.4-4.5,11.4-6,17c-5.3,9.4-12.6,20.5-25,18c-10.5-4.4-13.5-18.8-21-25"/>
<path class="st0" d="M983,1312c-14.5-2.7-31.1-0.2-46-1"/>
<path class="st0" d="M929,1322c0.2-0.7,1.2-3.3,1-4"/>
<path class="st0" d="M930,1312c-1,0.1-2.5,0-3-1"/>
<path class="st0" d="M1047,1312c-1-0.3-3.5-1-4-2"/>
<path class="st0" d="M1042,1310c-16,2.1-32.9,0.6-49,1"/>
<path class="st0" d="M988,1310c0.1-5.3,3.9-11.6,7-16c3-8.5,10.5-16.6,19-20c15.4,1.6,22.9,20.6,28,33"/>
<path class="st0" d="M868,1300c0-26.9,0-54.1,0-81"/>
<path class="st0" d="M1104,1310c-17.8,2.5-36.9,0.3-55,1"/>
<path class="st0" d="M1104,1310c-20.1,41.3-33.1,54.5-57,6"/>
<path class="st0" d="M1147,1314c-9.2-6.3-28.4-1.7-40-3"/>
<path class="st0" d="M1104,1310c7.6-11.3,11.4-27.9,24-35"/>
<path class="st0" d="M952,922c-28.8-2.1-47-96.4-54-122"/>
<path class="st0" d="M957,922c-0.4-0.6-1.2-1.2-2-1"/>
<path class="st0" d="M957,922c-0.3,1-1,3.5-2,4"/>
<path class="st0" d="M957,922c28.7-18.6,43.2-88.6,51-122"/>
<path class="st0" d="M978,949c-4.9,0-13.1,0-18,0"/>
<path class="st0" d="M953,949c0-0.7,0-2.4,0-3"/>
<path class="st0" d="M1028,949c-7.4,0-15.6,0-23,0"/>
<path class="st0" d="M1003,949c0-0.7,0-2.4,0-3"/>
<path class="st0" d="M1003,949c-6.7,0-16.3,0-23,0"/>
<path class="st0" d="M978,949c0-0.7,0-2.4,0-3"/>
<path class="st0" d="M953,949c-31.1,0-62.9,0-94,0"/>
<path class="st0" d="M1028,792c-5.1-5.2,1.8-4.9,2-3"/>
<path class="st0" d="M1028,924c0-42.9,0-86.1,0-129"/>
<path class="st0" d="M1028,979c0-9.1,0-18.9,0-28"/>
<path class="st0" d="M1078,948c-15.4,2.5-32.3,0.3-48,1"/>
<path class="st0" d="M1028,949c0-7.4,0-15.6,0-23"/>
<path class="st0" d="M1033,923c-0.6,0.3-2.3,1.3-3,1"/>
<path class="st0" d="M659,948c0-52.9,0-106.1,0-159"/>
<path class="st0" d="M664,948c31.5-32.2,45.1-106.1,57-150"/>
<path class="st0" d="M781,950c-36.5-2.7-74.2-0.1-111-1"/>
<path class="st0" d="M664,948c-0.7,0-2.4,0-3,0"/>
<path class="st0" d="M660,981c-2.2-9.6-0.5-21.2-1-31"/>
<path class="st0" d="M651,947c-2.1-6-9.8-12.3-13-18c-5.7-12.5-12-26.5-16-40c-11.1-29-17.7-60.9-25-91"/>
<path class="st0" d="M659,948c-0.7,0-3.3,0-4,0"/>
<path class="st0" d="M651,947c-4.5,4.6-28.8,0.9-37,2c-22.8,0-46.2,0-69,0"/>
<path class="st0" d="M312,1311c-18.4-1.1-38.2,0.7-57,0c-17.5-0.9-37.3,1.8-54-1"/>
<path class="st0" d="M312,1311c-0.8-28.9,0.5-59.6,0-89"/>
<path class="st0" d="M427,1311c-37.2,0.7-75-1.5-112,1"/>
<path class="st0" d="M312,1383c0.6-23.2-1.4-47,1-70"/>
<path class="st0" d="M317,434c-4.7,0-10.3,0-15,0"/>
<path class="st0" d="M418,438c-9.3-7.7-23.7-2.7-35-4c-20.8,0-42.2,0-63,0"/>
<path class="st0" d="M317,482c0-13.4,0-27.6,0-41"/>
<path class="st0" d="M318,519c-2.2-10.9-0.5-23.9-1-35"/>
<path class="st0" d="M418,438c-24.1,8.1-49.5,15.3-73,26c-6,4-14.3,7.7-19,13c-2.3,1.9-4.7,6.1-8,6"/>
<path class="st0" d="M436,433c-2.6-0.3-7.4,1-10,1"/>
<path class="st0" d="M424,434c-0.6,0.4-4,4.7-5,4"/>
<path class="st0" d="M424,434c-0.7-0.2-4.3-1.2-5-1"/>
<path class="st0" d="M317,434c0-26.6,0-53.4,0-80"/>
<path class="st0" d="M317,351c-5.1-5.2,1.8-4.9,2-3"/>
<path class="st0" d="M445,432c-0.7-0.2-5.3-2.3-6-2"/>
<path class="st0" d="M445,432c-0.7,0.3-5.2,3.5-6,3"/>
<path class="st0" d="M458,433c-3.6,2.1-8.5-0.5-12-1"/>
<path class="st0" d="M161,405c0-17.1,0-34.9,0-52"/>
<path class="st0" d="M255,434c-30.9,0-62.1,0-93,0"/>
<path class="st0" d="M160,521c2.7-27.8,0.1-56.9,1-85"/>
<path class="st0" d="M248,386c-3.3-4.9-24.9,5.6-31,7c-16.8,6.8-35.8,12.9-49,26"/>
<path class="st0" d="M162,425c0.6-0.8,2.2-3.4,3-4"/>
<path class="st0" d="M162,425c0-1.1,0.3-3.5-1-4"/>
<path class="st0" d="M161,433c0-0.7,0-5.4,0-6"/>
<path class="st0" d="M161,419c0-2.8,0-7.2,0-10"/>
<path class="st0" d="M161,405c-0.5,0-1.5,0-2,0"/>
<path class="st0" d="M161,433c-6.9,2-14.9,0.6-22,1"/>
</svg>
