<?xml version="1.0" encoding="utf-8"?>
<!-- Generator: Adobe Illustrator 27.1.0, SVG Export Plug-In . SVG Version: 6.00 Build 0)  -->
<svg version="1.1" id="Layer_1" xmlns:ev="http://www.w3.org/2001/xml-events"
	 xmlns="http://www.w3.org/2000/svg" xmlns:xlink="http://www.w3.org/1999/xlink" x="0px" y="0px" viewBox="0 0 1285 1541"
	 style="enable-background:new 0 0 1285 1541;" xml:space="preserve">
<style type="text/css">
	.st0{fill:none;stroke:#000000;}
</style>
<path class="st0" d="M522,1214v-4v-1v-7v-1v-7v-1v-7v-1v-7v-1v-6v-1"/>
<path class="st0" d="M611,1174l1,2v1l-3,6v1l-4,8v1l-3,4v1l-3,6l-1,1l-4,6l-1,1l-5,5l-1,1l-5,5l-1,1l-7,4l-1,1l-6,2h-1l-5,1h-1h-5
	h-1h-5h-1l-5-2h-1l-5-2h-1l-5-3h-1"/>
<path class="st0" d="M522,1252l1-3v-1v-2v-1v-5v-1v-5v-1v-6v-1"/>
<path class="st0" d="M526,1223l-2-5l-1-1"/>
<path class="st0" d="M522,1329v-3v-1v-5v-1v-5v-1v-5v-1v-5v-1v-5v-1v-5v-1v-5v-1v-6v-1v-5v-1v-5v-1v-5v-1"/>
<path class="st0" d="M619,1255l-3-3h-1h-6h-1h-5h-1h-5h-1h-5h-1h-5h-1h-5h-1h-5h-1h-5h-1h-5h-1h-5h-1h-5h-1h-5h-1h-5h-1h-5h-1h-5h-1
	"/>
<path class="st0" d="M426,1252h3h1"/>
<path class="st0" d="M522,1252l-3,1h-1h-5h-1h-5h-1h-5h-1h-5h-1h-5h-1h-5h-1h-5h-1h-5h-1h-5h-1h-5h-1h-5h-1h-5h-1h-6h-1"/>
<path class="st0" d="M428,1279l-1-5v-1l2-5v-1l2-4v-1l2-6l1-1"/>
<path class="st0" d="M435,1253l1-4v-1l1-3l1-1l3-6l1-1l3-5l1-1l1-2l1-1l3-4l1-1l5-5l1-1l9-6l1-1l4-2h1l5-2h1l9-1h1l4,1h1l5,1h1l8,3
	h1l9,4l1,1"/>
<path class="st0" d="M1039,1222l-1-4v-1v-7v-1v-6v-1v-5v-1v-5v-1v-5v-1v-5v-1v-5v-1"/>
<path class="st0" d="M1039,1251v-1v-1v-7v-1l1-6v-1"/>
<path class="st0" d="M1117,1175v2v1v6v1l-1,6v1l-1,6v1l-1,6v1l-2,6v1l-2,6v1l-2,3l-1,1h-8l-1-1l-4-5l-1-1l-3-5v-1l-3-6l-1-1l-3-6
	l-1-1l-4-4l-1-1l-6-2h-1l-5,1l-1,1l-6,6l-1,1l-2,3l-1,2l-3,7v1l-3,7l-1,2"/>
<path class="st0" d="M1038,1230l3,2h1l4-6v-1"/>
<path class="st0" d="M1038,1230v-4v-1"/>
<path class="st0" d="M1044,1222l-3-1h-1"/>
<path class="st0" d="M961,1329l-2-3v-1l1-6v-1l1-6v-1v-6l1-1v-6l1-1l1-6v-1l2-6l1-1l2-2l1-1h7l1,1l3,3l1,1l4,7v1l5,9v1l7,8l1,1l6,2
	h1l7-2l1-1l6-8l1-1l4-9v-1l3-8v-1l2-5v-1l3-2l1-1"/>
<path class="st0" d="M1037,1329l1-4v-1v-6v-1v-7v-1v-6v-1v-7v-1v-6v-1v-7v-1"/>
<path class="st0" d="M1035,1274v-1v-1l1-5v-1l1-5v-1v-5v-1"/>
<path class="st0" d="M1128,1255l-3-3h-1h-4h-1h-9h-1h-9h-1h-9h-1h-9h-1h-5h-1h-4h-1h-8h-1h-9h-1h-8h-1"/>
<path class="st0" d="M1039,1251l-5,1h-1h-3h-1h-9h-1h-5h-1h-4h-1h-9h-1h-5h-1h-4h-1h-9h-1h-9h-1"/>
<path class="st0" d="M868,1250l-5,2h-1h-9h-1h-6h-1h-3h-1"/>
<path class="st0" d="M838,1252l-1,7l-1,1l-1,4l-1,1l-5,5h-1h-7l-1-1l-6-3l-1-1l-5-5l-1-1"/>
<path class="st0" d="M838,1252l-3-1h-1h-3h-1l-9-1h-1l-9,1h-1"/>
<path class="st0" d="M838,1252l1-2l1-1v-2v-1l1-6v-1l1-5v-1l1-5l1-1v-5l1-1l1-6v-1v-5l1-1v-5l1-1v-5v-1l1-6v-1l1-5v-1l1-5v-1"/>
<path class="st0" d="M788,1252v-2v-1v-7v-1v-8v-1v-8v-1v-8v-1v-7v-1v-8v-1v-7v-1v-8v-1v-7v-1"/>
<path class="st0" d="M803,1252h-2h-1l-9-1h-1"/>
<path class="st0" d="M787,1256l-1-1l1-1"/>
<path class="st0" d="M786,1330l2-3v-1v-4v-1v-9v-1v-7v-1v-6v-1v-6v-1v-6v-1v-6v-1v-6v-1v-6v-1"/>
<path class="st0" d="M788,1252l-7-1h-1h-9h-1h-9h-1h-8h-1h-6h-1h-6h-1h-6h-1"/>
<path class="st0" d="M787,1256l-2,1h-1l-4,3l-1,1l-2,3l-1,1l-4,7v1l-3,5v1l-3,6v1l-3,5v1l-2,6l-1,1l-3,5l-1,1l-4,4h-1l-5,1h-1l-4-2
	l-1-1l-3-4v-1l-3-8l-1-1l-2-8v-1l-2-7v-1l-1-8v-1l-2-8v-1"/>
<path class="st0" d="M727,1254l-1-4v-1v-7v-1l-1-8v-1l-1-8v-1l-1-8v-1l-1-7v-1l-1-8v-1l-1-7v-1v-7v-1"/>
<path class="st0" d="M727,1254l-2-2h-1h-6h-1"/>
<path class="st0" d="M891,824h-3h-1h-2h-1h-6h-1h-7h-1h-7h-1h-7h-1h-7h-1h-7h-1h-7h-1h-7h-1"/>
<path class="st0" d="M891,824l-1-3v-1l2-8v-1l2-7v-1l3-9v-1l3-9l1-1l2-9v-1l1-8v-1l1-3v-1"/>
<path class="st0" d="M984,824l-1-3v-1l-2-8v-1l-2-8l-1-1l-2-8v-1l-2-7l-1-1l-2-8v-1l-3-7v-1l-3-8l-1-1l-3-7v-1l-4-8l-1-1l-4-6l-1-1
	l-3-3l-1-1l-3-2l-1-1l-6-1h-1l-5,1l-1,1l-5,3l-1,1l-3,4l-1,1l-4,7l-1,1l-3,6v1l-3,4l-1,1"/>
<path class="st0" d="M904,877v-4v-1v-6v-1v-6v-1v-6v-1v-6v-1v-6v-1v-6v-1"/>
<path class="st0" d="M984,824h-3l-1,1h-2h-1h-5h-1h-4h-1h-7h-1h-6l-1,1l-7-1h-1h-6h-1h-7h-1h-6h-1h-7h-1h-6l-1,1"/>
<path class="st0" d="M905,827l-4-2h-1h-4h-1"/>
<path class="st0" d="M883,876l-3-5v-1l2-9v-1l2-9v-1l2-8v-1l2-5v-1l1-4v-1"/>
<path class="st0" d="M1018,826l-3-2h-1h-5h-1h-5h-1h-5h-1h-7h-1"/>
<path class="st0" d="M993,876v-5v-1l-2-9v-1l-2-9v-1l-2-8v-1l-1-5l-1-1v-4v-1"/>
<path class="st0" d="M905,758l-1-5v-1v-6v-1v-6v-1v-6v-1v-5v-1v-6v-1v-6v-1v-6v-1"/>
<path class="st0" d="M533,847h7h1h7h1h7h1h8h1h7h1h7h1h7h1h8h1h7h1h7h1"/>
<path class="st0" d="M711,844l-3,3h-1h-5h-1h-5h-1h-5h-1h-6h-1h-5h-1h-5h-1h-5h-1h-8h-1h-7h-1h-7h-1h-7h-1h-8h-1"/>
<path class="st0" d="M619,877l2-4v-1v-7v-1v-7v-1v-7v-1"/>
<path class="st0" d="M622,796l-1-4v-1v-3v-1v-6v-1v-5v-1v-6v-1v-5v-1v-6v-1v-5v-1v-6v-1v-5v-1v-6v-1v-5v-1v-6v-1"/>
<path class="st0" d="M620,806l1-5v-1"/>
<path class="st0" d="M660,718l1,4v1l-2,5v1l-2,4v1l-3,9l-1,1l-3,9l-1,1l-4,9v1l-5,9v1l-5,9l-1,1l-5,8l-1,1"/>
<path class="st0" d="M621,846v-6v-1v-7v-1v-8v-1v-7v-1v-6v-1"/>
<path class="st0" d="M620,806h-1h-1l-5,2l-1,1l-7,2l-1,1l-7,1h-1l-7-2h-1l-7-4l-1-1l-5-4l-1-2l-4-4l-1-1l-4-5v-1l-3-4l-1-1l-3-5v-1
	l-3-5l-1-1l-2-5l-1-1l-2-4v-1l-3-6v-1l-2-4v-1l-2-5l-1-1l-2-5v-1l-2-6l-1-1l-2-6v-1l-2-5v-1"/>
</svg>
